<svg version="1.2" baseProfile="tiny-ps" xmlns="http://www.w3.org/2000/svg" viewBox="0 0 23 15" width="23" height="15">
	<title>Our Team</title>
	<style>
		tspan { white-space:pre }
		.shp0 { fill: #888888 } 
	</style>
	<g id="Our Team">
		<g id="Items">
			<g id="Item 1">
				<path id="Union 6" class="shp0" d="M6.75 14.35C5.34 14.27 4.06 13.82 2.93 12.99C1.47 11.91 0.54 10.48 0.16 8.7C0.02 8.06 -0.03 7.42 0.02 6.77C0.12 5.23 0.66 3.86 1.64 2.67C2.66 1.41 3.95 0.6 5.51 0.21C5.9 0.1 6.29 0.04 6.69 0.02C6.92 0.01 7.15 0 7.38 0C8.59 0.01 9.73 0.32 10.78 0.93C11.48 1.33 11.87 1.74 12.05 1.86C11.33 2.57 10.64 3.26 9.94 3.95C9.42 3.5 8.84 3.09 7.84 2.93C7.63 2.9 7.43 2.89 7.23 2.89C5.22 2.89 3.54 4.34 3.09 6.24C2.98 6.67 2.95 7.11 2.99 7.54C3.14 9.31 4.33 10.76 5.93 11.28C6.33 11.4 6.75 11.47 7.18 11.47C7.28 11.47 7.38 11.46 7.48 11.46C8.23 11.41 8.94 11.21 9.57 10.79C10.65 10.05 11 8.91 11 8.62L7.15 8.62C7.15 8.53 7.17 6.73 7.17 5.86L7.18 5.74L13.94 5.74C14.3 7.84 13.97 10.06 12.66 11.79C11.75 12.99 10.55 13.74 9.11 14.11C8.47 14.28 7.82 14.36 7.17 14.36C7.03 14.36 6.89 14.36 6.75 14.35ZM20.08 10.3L18.26 10.3L18.19 10.3L18.19 10.23L18.21 7.8L15.78 7.8L15.7 7.8L15.7 7.72L15.72 5.9L15.72 5.83L15.79 5.83L18.22 5.83L18.24 3.4L18.24 3.33L18.31 3.33L20.14 3.33L20.2 3.33L20.2 3.4L20.18 5.83L22.62 5.83L22.69 5.83L22.69 5.9L22.68 7.72L22.68 7.8L22.6 7.8L20.17 7.8L20.15 10.23L20.15 10.3L20.08 10.3Z" />
			</g>
		</g>
	</g>
</svg>