<svg version="1.2" baseProfile="tiny-ps" xmlns="http://www.w3.org/2000/svg" viewBox="0 0 18 18" width="18" height="18">
	<title>Our Team</title>
	<style>
		tspan { white-space:pre }
		.shp0 { fill: #888888 } 
	</style>
	<g id="Our Team">
		<g id="Items">
			<g id="Item 1">
				<path id="Union 5" fill-rule="evenodd" class="shp0" d="M3.59 16.94C1.64 16.44 0.47 15.16 0.16 13.19C-0.07 11.74 -0.09 5 0.33 3.54C0.87 1.63 2.15 0.51 4.08 0.19C4.95 0.05 6.66 0 8.39 0C9.99 0 11.61 0.04 12.58 0.1C13.76 0.16 14.85 0.54 15.72 1.38C16.56 2.18 16.99 3.18 17.1 4.32C17.22 5.67 17.31 12.06 16.91 13.56C16.37 15.52 15.1 16.68 13.11 17C12.37 17.12 10.37 17.19 8.37 17.19C6.32 17.19 4.28 17.12 3.59 16.94ZM4.51 1.68C3.01 1.86 2 2.78 1.76 4.27C1.51 5.86 1.51 11.77 1.7 12.96C1.89 14.19 2.59 15.04 3.82 15.39C4.49 15.57 6.49 15.64 8.45 15.64C10.25 15.64 12.02 15.58 12.69 15.51C14.2 15.34 15.2 14.41 15.44 12.91C15.69 11.39 15.69 5.88 15.55 4.46C15.39 2.95 14.47 1.95 12.97 1.72C12.23 1.61 10.45 1.56 8.67 1.56C6.96 1.56 5.26 1.6 4.51 1.68ZM4.19 8.6C4.21 6.16 6.2 4.18 8.64 4.19C11.07 4.19 13.03 6.17 13.01 8.6C12.99 11.03 11 13.01 8.56 13.01C6.13 13.01 4.17 11.03 4.19 8.6ZM5.74 8.57C5.72 10.14 6.97 11.44 8.55 11.45L8.57 11.45C10.14 11.45 11.42 10.19 11.45 8.63C11.47 7.04 10.22 5.76 8.65 5.75L8.62 5.75C7.06 5.75 5.77 7 5.74 8.57ZM12.19 4.02C12.19 3.45 12.65 2.99 13.22 2.99L13.23 2.99C13.8 2.99 14.26 3.45 14.25 4.03C14.25 4.59 13.78 5.05 13.21 5.05C12.64 5.05 12.18 4.59 12.19 4.02Z" />
			</g>
		</g>
	</g>
</svg>